<svg xmlns="http://www.w3.org/2000/svg" width="256" height="256"><path fill="#1976D2" fill-opacity=".016" fill-rule="evenodd" d="M0 128.004v128.004l128.25-.254 128.25-.254.254-127.75L257.008 0H0zm.485.496c0 70.4.119 99.053.265 63.672s.146-92.98 0-128S.485 58.1.485 128.5"/><path fill="#1976D2" fill-opacity=".49" fill-rule="evenodd" d="M39.5 17.647C19.15 19.514 1.938 21.243 1.25 21.49.298 21.831.005 27.483.022 45.219L.044 68.5 21.881 155l21.838 86.5 25.391-.277c36.011-.394 32.623.523 37.906-10.256 2.418-4.932 4.668-8.967 5.002-8.967s1.896 4.038 3.473 8.972l2.867 8.972 30.463.278c29.521.269 30.502.216 31.76-1.722.714-1.1 18.042-37.1 38.508-80l37.209-78 .226-30c.125-16.5.037-26.984-.193-23.298-.294 4.687-.783 6.562-1.626 6.24-.663-.254-18.687-4.215-40.055-8.802l-38.849-8.341-1.737 4.1c-.956 2.256-6.863 16.588-13.126 31.851-6.264 15.263-11.625 27.738-11.913 27.724s-5.181-7.053-10.872-15.641l-10.347-15.615-15.367 15.343c-8.452 8.439-15.543 15.14-15.756 14.891-.656-.762-5.346-18.31-11.281-42.202-4.546-18.302-5.969-22.725-7.277-22.624-.894.07-18.275 1.654-38.625 3.521M.432 46c0 13.475.142 18.987.315 12.25s.173-17.763 0-24.5C.574 27.012.432 32.525.432 46"/><path fill="#1976D2" fill-opacity=".281" fill-rule="evenodd" d="M36 18.521c-18.975 1.798-34.613 3.316-34.75 3.374S1 32.863 1 46.14v24.141l21.587 85.609c11.874 47.086 21.661 85.664 21.75 85.729.401.295 56.272-1.695 57.163-2.035.55-.21 3.025-4.459 5.5-9.444 2.475-4.984 4.766-9.08 5.092-9.101s1.163 1.873 1.861 4.211 2.152 6.613 3.23 9.5l1.961 5.25h60.528l12.557-26.25c6.907-14.437 24.081-50.4 38.164-79.917L256 80.166V57.15c0-21.059-.149-23.058-1.75-23.522-8.532-2.474-77.711-16.554-78.287-15.935-.413.444-6.526 14.869-13.585 32.057-7.059 17.187-13.069 31.24-13.356 31.229-.287-.012-4.989-6.785-10.449-15.051s-10.348-15.289-10.861-15.606-7.776 6.255-16.139 14.605L96.367 80.109l-3.044-10.804c-1.674-5.943-5.44-20.593-8.369-32.555L79.628 15l-4.564.126c-2.51.07-20.089 1.598-39.064 3.395m5.325 14.854c-12.746 1.178-23.418 2.384-23.714 2.68-.455.455 37.946 154.944 38.647 155.48.133.101 8.342-.09 18.242-.425l18-.61 11.165-22c6.707-13.214 11.394-21.401 11.738-20.5.315.825 3.676 10.5 7.47 21.5l6.899 20h40.666l34.155-71.5c28.511-59.684 33.887-71.616 32.531-72.2-2.789-1.203-49.348-10.905-50.843-10.594-.829.172-7.991 16.269-17.246 38.759-8.705 21.156-16.212 38.583-16.681 38.725s-6.659-8.504-13.753-19.215S125.436 74 125.111 74s-8.506 7.906-18.181 17.57l-17.59 17.57-6.148-20.32c-3.381-11.176-8.239-28.757-10.794-39.07-3.709-14.965-4.975-18.726-6.272-18.633-.894.064-12.055 1.08-24.801 2.258"/><path fill="#1976D2" fill-opacity=".978" fill-rule="evenodd" d="M39 18.549c-19.525 1.84-36.062 3.369-36.75 3.398-.963.041-1.25 5.46-1.25 23.616v23.563l21.598 85.687c11.878 47.128 21.759 85.855 21.957 86.061s13.233.041 28.966-.366l28.607-.74 4.662-9.384c2.564-5.161 4.973-9.384 5.353-9.384.381 0 2.116 4.275 3.857 9.5l3.165 9.5 30.167-.012 30.168-.012 37.756-79.238L255.012 81.5l-.006-23.642L255 34.217l-2.25-.555c-1.238-.306-18.225-3.981-37.75-8.168-19.525-4.188-36.218-7.82-37.096-8.072-1.258-.362-3.678 4.582-11.411 23.309C150.499 79.462 149.833 81 149.045 81c-.415 0-5.402-7-11.082-15.556l-10.327-15.556-15.08 15.056C104.262 73.225 97.157 80 96.766 80c-.98 0-3.031-7.258-10.737-38-6.375-25.433-6.741-26.506-9.086-26.648-1.344-.082-18.418 1.357-37.943 3.197M37 33.19c-11.275 1.091-20.57 2.057-20.655 2.147s8.69 35.263 19.5 78.163l19.655 78 7.5.327c4.125.179 12.583.021 18.796-.352l11.297-.678 10.788-21.558 10.788-21.558 3.668 10.409c2.018 5.726 5.355 15.36 7.416 21.41l3.747 11 20.111.27c15.347.207 20.338-.03 21.07-1C171.999 188.026 239 47.253 239 46.228c0-1.144-53.182-12.459-54.067-11.504-.554.599-28.559 67.975-31.839 76.602-.535 1.407-3.747-2.767-14.044-18.25C131.708 82.034 125.435 73 125.11 73s-8.474 7.875-18.11 17.5L89.48 108l-5.806-19.25c-3.193-10.588-7.94-27.8-10.548-38.25l-4.743-19-5.441-.146C59.949 31.273 48.275 32.1 37 33.19"/></svg>